<svg id="Layer_1" data-name="Layer 1" xmlns="http://www.w3.org/2000/svg" viewBox="0 0 1000.23 866.55"><defs><style>.cls-1{fill:#59b0ba;}.cls-1,.cls-2{fill-rule:evenodd;}.cls-2{fill:#07181f;}</style></defs><path class="cls-1" d="M991.79,479Q877.9,281.78,764.44,84.32c-7-12.24-14.09-18.08-29.48-18q-235.07,1.09-470.14,0c-15.38-.07-22.54,5.68-29.49,18-32.54,57.6-65.75,114.82-99,172Q68.22,373.38-.23,490.23L.7,524.32C3.22,528.15,5.69,532,8,536Q108.35,709.81,208.4,883.8a27.86,27.86,0,0,0,24.15,14H259.6c-.54-.82-1.07-1.68-1.59-2.59C186.69,770.57,114.56,646.41,43.51,521.62c-4.08-7.16-4.39-20.59-.37-27.64Q150.2,305.8,259.45,118.87c4.2-7.19,15.9-14.15,24.15-14.2,143.94-.87,287.88-.43,431.82-.94,13.41-.06,20,5.2,26.25,16.07Q847.74,304.68,954.82,489c7.73,13.27,8.6,22.55.46,36.46q-107.62,184-213.17,369.16c-.66,1.15-1.33,2.21-2,3.22H767a27.83,27.83,0,0,0,24.16-14q35.88-62.7,72.3-125.08Q931.55,641.62,1000,524.75l-.93-34.08C996.55,486.83,994.09,483,991.79,479Z" transform="translate(0.23 -66.31)"/><path class="cls-2" d="M530,397.13c-5.88,56.78-7.07,113.82-2.39,170.9,1,11.92-.07,23.72-1.6,35.68-3.16,24.88,1,49.5,6,73.91a353.76,353.76,0,0,0,19.71,65.32c20.07,48.15,45.7,92.46,91.82,121a110.46,110.46,0,0,0,45.09,16.26c-2.29,7.81-10.26,8.5-15.45,11.49a308.7,308.7,0,0,1-98.77,36.28c-23.17,4.25-46.25,5.07-69.58,4.89-21.63-.17-42.48-4.89-63.49-9.21-16.26-3.36-32.24-7.89-46.85-15.33-15.46-7.86-25.61-22.49-37.58-34.7-17.84-18.18-32.2-39-46.59-59.94-18.75-27.27-34.16-56.31-47.64-86.43q-16.3-36.51-29.84-74.16c-5.8-16.09-8.74-32.9-14-49.06-7.74-23.89-11.28-48.63-15.93-73.1-5.86-30.94-10.62-62.08-17.58-92.81-1-4.33.22-7.81,3.43-11.49,40.73-47,88.33-86.44,137.61-123.91a917.36,917.36,0,0,1,95.44-64.14c11.7-6.77,23.72-13,35.76-19.17,13.21-6.75,26.61-1.89,39.25,1.37,37.73,9.71,74.36,22.95,111,36.16,33.12,11.93,66.6,22.86,99.77,34.67,7.57,2.7,11.78,10.2,17.25,15.77q63.71,64.89,127.28,129.92a26.39,26.39,0,0,1,1.89,2.49C826.87,493.89,793.5,542.69,739,573.34c12-15,24.25-29.58,34-46.14,9.9-16.76,16.9-34.5,20.06-53.92C767.65,518.06,737.44,557.62,687,576.33c7.79-11.18,18.25-19.91,26.4-30.76,17.23-22.92,29.21-48.14,35.2-76.15.61-2.81,2-6.36-1-8.58-15.41-11-30.94-21.86-46.74-33-12.52,16.28-18.44,34.55-23,52.94-11.71,47.12-12.72,95.26-11.16,143.51.17,5.49.75,11,1.26,18.14,23.37-4.68,41.22-19.44,61.81-28.21-13,18.17-28.68,33.54-46.1,47.07-15.26,11.84-31.52,22.27-50.47,27.18-12.59,3.27-25.57,2.27-38.38.74-2.46-.3-5.21-.89-5.86-4.56-4.49-25.25-15.65-48.62-20.4-73.87-6-32.09-13-64-18.86-96.16-5.16-28.28-9.53-56.7-14.8-85C532.87,418.89,531.62,408,530,397.13Zm119-81.28c.39-.53,1.37-1.07,0-1.56.06.49.11,1,.17,1.47,7.8,18.41,15.59,36.82,23.28,55H725c-21.56-16.14-41.68-31.33-62-46.27C658.61,321.25,655.57,315.53,649,315.85Z" transform="translate(0.23 -66.31)"/></svg>